<svg width="80" height="80" viewBox="0 0 80 80" fill="none" xmlns="http://www.w3.org/2000/svg">
  <defs>
    <filter id="glow" x="0" y="0" width="100%" height="100%" filterUnits="userSpaceOnUse" color-interpolation-filters="sRGB">
      <feFlood flood-opacity="0" result="BackgroundImageFix"/>
      <feBlend mode="normal" in="SourceGraphic" in2="BackgroundImageFix" result="shape"/>
      <feGaussianBlur stdDeviation="8" result="effect1_foregroundBlur"/>
    </filter>
    <linearGradient id="leftGrad" x1="33" y1="22" x2="33" y2="56" gradientUnits="userSpaceOnUse">
      <stop stop-color="#17D7FF"/>
      <stop offset="1" stop-color="#1E5BFF"/>
    </linearGradient>
    <linearGradient id="rightGrad" x1="50.5" y1="22" x2="50.5" y2="56" gradientUnits="userSpaceOnUse">
      <stop stop-color="#17D7FF"/>
      <stop offset="1" stop-color="#1E5BFF"/>
    </linearGradient>
  </defs>
  <!-- Soft glow halo -->
  <g filter="url(#glow)">
    <circle cx="42" cy="39" r="20" fill="#8FE7FF" fill-opacity="0.65"/>
  </g>
  <!-- Left page: gradient fill -->
  <path d="M42 25C42 25 38.5 22 31 22C27.134 22 24 24.134 24 24.134V55C24 55 27.134 53 31 53C38.5 53 42 56 42 56V25Z" fill="url(#leftGrad)"/>
  <!-- Right page: gradient fill -->
  <path d="M42 25C42 25 45.5 22 53 22C56.866 22 59 24 59 24V55C59 55 56.866 53 53 53C45.5 53 42 56 42 56V25Z" fill="url(#rightGrad)"/>
  <!-- Center spine: white -->
  <line x1="42" y1="25" x2="42" y2="56" stroke="white" stroke-width="3" stroke-linecap="round"/>
  <!-- Left page text lines: white -->
  <line x1="29" y1="31" x2="38" y2="31" stroke="white" stroke-width="2.5" stroke-linecap="round"/>
  <line x1="29" y1="38" x2="38" y2="38" stroke="white" stroke-width="2.5" stroke-linecap="round"/>
  <line x1="29" y1="45" x2="36" y2="45" stroke="white" stroke-width="2" stroke-linecap="round"/>
  <!-- Right page text lines: white -->
  <line x1="46" y1="31" x2="55" y2="31" stroke="white" stroke-width="2.5" stroke-linecap="round"/>
  <line x1="46" y1="38" x2="55" y2="38" stroke="white" stroke-width="2.5" stroke-linecap="round"/>
  <line x1="46" y1="45" x2="53" y2="45" stroke="white" stroke-width="2" stroke-linecap="round"/>
</svg>
